<?xml version="1.0" encoding="UTF-8"?>
<svg width="50" height="50" viewBox="0 0 50 50" fill="none" xmlns="http://www.w3.org/2000/svg">
  <!-- Background Circle -->
  <circle cx="25" cy="25" r="23" fill="#F59E0B" stroke="#1E293B" stroke-width="2"/>
  
  <!-- Building Icon -->
  <g transform="translate(10, 12)">
    <!-- Main building -->
    <rect x="2" y="6" width="26" height="16" fill="#1E293B" rx="1"/>
    
    <!-- Windows -->
    <rect x="4" y="8" width="3" height="3" fill="#F59E0B"/>
    <rect x="9" y="8" width="3" height="3" fill="#F59E0B"/>
    <rect x="14" y="8" width="3" height="3" fill="#F59E0B"/>
    <rect x="19" y="8" width="3" height="3" fill="#F59E0B"/>
    <rect x="24" y="8" width="3" height="3" fill="#F59E0B"/>
    
    <rect x="4" y="13" width="3" height="3" fill="#F59E0B"/>
    <rect x="9" y="13" width="3" height="3" fill="#F59E0B"/>
    <rect x="14" y="13" width="3" height="3" fill="#F59E0B"/>
    <rect x="19" y="13" width="3" height="3" fill="#F59E0B"/>
    <rect x="24" y="13" width="3" height="3" fill="#F59E0B"/>
    
    <rect x="4" y="18" width="3" height="3" fill="#F59E0B"/>
    <rect x="9" y="18" width="3" height="3" fill="#F59E0B"/>
    <rect x="14" y="18" width="3" height="3" fill="#F59E0B"/>
    <rect x="19" y="18" width="3" height="3" fill="#F59E0B"/>
    <rect x="24" y="18" width="3" height="3" fill="#F59E0B"/>
    
    <!-- Foundation -->
    <rect x="0" y="22" width="30" height="2" fill="#94A3B8"/>
  </g>
  
  <!-- B4 Text -->
  <text x="25" y="30" text-anchor="middle" font-family="Montserrat, Arial, sans-serif" font-size="12" font-weight="800" fill="white">B4</text>
</svg>
