<?xml version="1.0" encoding="UTF-8"?>
<svg width="32" height="32" viewBox="0 0 32 32" fill="none" xmlns="http://www.w3.org/2000/svg">
  <!-- Background Circle -->
  <circle cx="16" cy="16" r="15" fill="#F59E0B"/>
  
  <!-- Building Icon -->
  <g transform="translate(6, 8)">
    <!-- Main building -->
    <rect x="1" y="4" width="18" height="12" fill="#1E293B" rx="1"/>
    
    <!-- Windows pattern -->
    <rect x="2" y="5" width="2" height="2" fill="#F59E0B"/>
    <rect x="5" y="5" width="2" height="2" fill="#F59E0B"/>
    <rect x="8" y="5" width="2" height="2" fill="#F59E0B"/>
    <rect x="11" y="5" width="2" height="2" fill="#F59E0B"/>
    <rect x="14" y="5" width="2" height="2" fill="#F59E0B"/>
    <rect x="17" y="5" width="2" height="2" fill="#F59E0B"/>
    
    <rect x="2" y="8" width="2" height="2" fill="#F59E0B"/>
    <rect x="5" y="8" width="2" height="2" fill="#F59E0B"/>
    <rect x="8" y="8" width="2" height="2" fill="#F59E0B"/>
    <rect x="11" y="8" width="2" height="2" fill="#F59E0B"/>
    <rect x="14" y="8" width="2" height="2" fill="#F59E0B"/>
    <rect x="17" y="8" width="2" height="2" fill="#F59E0B"/>
    
    <rect x="2" y="11" width="2" height="2" fill="#F59E0B"/>
    <rect x="5" y="11" width="2" height="2" fill="#F59E0B"/>
    <rect x="8" y="11" width="2" height="2" fill="#F59E0B"/>
    <rect x="11" y="11" width="2" height="2" fill="#F59E0B"/>
    <rect x="14" y="11" width="2" height="2" fill="#F59E0B"/>
    <rect x="17" y="11" width="2" height="2" fill="#F59E0B"/>
    
    <!-- Foundation -->
    <rect x="0" y="16" width="20" height="1" fill="#94A3B8"/>
  </g>
</svg>
